<?xml version="1.0" standalone="no"?>
<!DOCTYPE svg PUBLIC "-//W3C//DTD SVG 20010904//EN"
 "http://www.w3.org/TR/2001/REC-SVG-20010904/DTD/svg10.dtd">
<svg version="1.0" xmlns="http://www.w3.org/2000/svg"
 width="1100.000000pt" height="1100.000000pt" viewBox="0 0 1100.000000 1100.000000"
 preserveAspectRatio="xMidYMid meet">
<metadata>
Created by potrace 1.11, written by Peter Selinger 2001-2013
</metadata>
<g transform="translate(0.000000,1100.000000) scale(0.100000,-0.100000)"
fill="#000000" stroke="none">
<path d="M3950 9729 c-69 -4 -192 -22 -275 -39 -743 -153 -1350 -619 -1688
-1296 -41 -83 -95 -211 -120 -289 -52 -154 -113 -436 -117 -530 -1 -33 -5
-100 -8 -150 -11 -137 5 -351 39 -530 29 -153 110 -426 150 -507 11 -21 19
-40 19 -43 0 -4 -53 -32 -117 -62 -224 -107 -511 -320 -678 -504 -177 -195
-287 -353 -396 -570 -136 -271 -232 -628 -245 -902 -3 -73 -7 -136 -8 -142 -2
-5 1 -80 5 -165 30 -519 240 -1037 583 -1435 485 -562 1249 -879 1981 -819
327 26 623 107 902 247 141 71 319 183 421 265 23 19 44 33 46 31 2 -2 23 -49
48 -104 53 -120 155 -277 240 -371 229 -255 514 -416 853 -484 161 -32 404
-31 570 4 233 49 440 142 617 279 l38 29 52 -45 c184 -155 423 -266 683 -318
162 -33 404 -31 570 4 274 58 503 173 707 354 249 222 408 502 479 843 31 147
31 419 0 565 -52 252 -183 529 -323 682 -21 24 -38 47 -38 52 0 5 13 47 29 93
34 96 71 271 71 333 l0 42 73 7 c260 25 515 117 738 266 47 32 135 108 196
167 223 223 358 475 425 793 31 152 31 411 -1 562 -56 269 -172 508 -340 703
-29 34 -49 67 -47 75 3 8 21 60 40 115 62 178 79 285 78 495 0 149 -4 204 -21
285 -66 310 -201 563 -417 779 -218 217 -463 347 -778 412 -98 20 -145 24
-270 22 l-151 -1 105 -8 c177 -12 333 -60 479 -148 253 -153 427 -418 471
-719 16 -108 8 -364 -14 -457 -99 -421 -194 -593 -427 -773 -56 -42 -106 -79
-112 -81 -7 -2 -28 -17 -48 -32 -20 -16 -40 -29 -44 -29 -4 0 -19 -9 -34 -20
-88 -62 -317 -156 -456 -187 -111 -25 -413 -25 -500 0 -33 9 -71 19 -85 23
l-25 7 30 -34 c43 -48 -100 79 -161 143 -75 79 -146 166 -190 232 -59 89 -153
250 -154 261 0 6 -6 21 -13 35 -41 80 -92 255 -111 385 -17 114 -9 295 18 405
42 176 159 371 324 542 58 59 103 108 101 108 -26 0 -169 -38 -259 -69 -157
-53 -303 -124 -441 -214 -225 -145 -400 -319 -548 -540 l-78 -118 -6 53 c-8
61 -36 521 -35 558 1 40 -127 283 -220 420 -249 363 -561 636 -937 819 -285
139 -594 222 -900 241 -166 10 -168 10 -345 -1z m-200 -348 c117 -10 232 -36
325 -72 52 -22 59 -25 134 -67 25 -14 55 -30 66 -36 49 -27 106 -76 192 -163
86 -88 110 -120 190 -261 42 -75 99 -245 118 -356 19 -110 19 -401 1 -503 -7
-42 -9 -77 -4 -85 5 -7 6 -55 2 -105 -4 -66 -3 -93 5 -93 7 0 11 -26 11 -75 0
-59 3 -75 15 -75 10 0 16 -16 21 -51 6 -48 8 -50 33 -45 14 4 -35 -26 -109
-66 -260 -140 -468 -299 -669 -513 -57 -60 -109 -114 -115 -120 -20 -19 28 40
68 82 l39 42 -35 -3 c-20 -2 -75 -22 -124 -46 -270 -130 -513 -187 -754 -176
-199 9 -324 38 -475 112 -145 71 -196 107 -303 208 -105 100 -256 336 -309
486 -56 155 -62 184 -74 343 -11 154 -10 162 16 300 15 78 36 167 47 197 12
30 27 71 34 90 7 19 22 59 33 89 32 86 170 309 235 378 43 47 69 77 109 126
18 21 75 70 127 109 52 39 106 81 120 94 14 12 66 44 115 69 50 26 110 57 135
70 56 30 246 92 320 105 65 12 284 27 320 23 14 -2 77 -7 140 -12z m-652
-2838 c-10 -2 -26 -2 -35 0 -10 3 -2 5 17 5 19 0 27 -2 18 -5z m125 -10 c-7
-2 -21 -2 -30 0 -10 3 -4 5 12 5 17 0 24 -2 18 -5z m60 -10 c-7 -2 -19 -2 -25
0 -7 3 -2 5 12 5 14 0 19 -2 13 -5z m6648 -121 c-6 -11 -12 -106 -14 -213 -5
-215 -21 -306 -93 -524 -91 -274 -192 -401 -484 -604 -66 -46 -250 -149 -307
-172 -32 -12 -61 -28 -65 -33 -5 -7 -8 -5 -8 4 0 9 -29 74 -65 145 -36 70 -64
129 -63 130 2 2 28 20 59 41 282 197 700 644 877 939 30 50 60 97 66 105 7 8
32 59 56 113 24 53 45 95 47 93 3 -2 0 -13 -6 -24z m-7365 -223 c44 -5 107
-16 140 -25 32 -9 64 -17 69 -18 26 -5 126 -47 161 -66 154 -87 185 -110 285
-209 98 -98 158 -182 222 -306 22 -44 74 -200 92 -275 22 -95 29 -323 15 -480
-6 -74 -11 -142 -10 -150 2 -8 2 -59 1 -112 -2 -64 2 -98 8 -98 7 0 11 -29 11
-76 0 -62 3 -75 14 -71 11 5 16 -7 22 -49 3 -30 10 -54 15 -54 5 0 9 -15 9
-34 0 -18 6 -38 13 -44 16 -13 15 -179 -1 -209 -7 -12 -12 -30 -12 -40 -1 -21
-61 -88 -126 -137 -36 -28 -49 -33 -62 -25 -12 8 -29 6 -59 -4 -34 -12 -43
-12 -43 -2 0 10 -9 11 -34 5 -19 -4 -39 -3 -44 2 -5 5 -27 5 -55 -2 -25 -5
-52 -7 -60 -4 -8 3 -39 -1 -68 -9 -30 -8 -70 -15 -89 -15 -19 0 -62 -12 -95
-27 -33 -15 -70 -27 -83 -26 -13 0 -71 -22 -130 -51 -136 -65 -308 -123 -442
-150 -129 -25 -396 -27 -494 -3 -158 39 -201 53 -286 94 -46 21 -154 83 -160
91 -3 3 -32 26 -65 52 -89 67 -187 179 -239 272 -15 28 -50 88 -77 133 -26 45
-67 137 -90 205 -39 115 -42 133 -51 286 -8 154 -8 171 17 305 14 78 36 169
49 202 13 33 38 98 56 145 29 74 104 211 176 319 51 76 221 255 302 318 48 37
93 72 100 78 7 5 18 15 25 20 52 42 291 156 394 190 140 45 187 55 323 65 119
8 218 5 356 -11z m5043 -354 c454 -82 771 -400 847 -849 20 -117 15 -334 -10
-456 -42 -207 -117 -416 -194 -540 -91 -146 -346 -348 -600 -475 -273 -137
-580 -177 -845 -111 -75 19 -87 20 -82 7 7 -18 -38 23 -130 119 -190 197 -322
409 -407 654 -54 156 -68 230 -75 416 -4 108 -2 140 20 235 47 210 156 394
342 580 61 61 150 137 200 171 298 203 656 298 934 249z m-2161 -1676 c70 -18
241 -88 272 -113 8 -6 31 -20 50 -30 84 -46 294 -210 403 -315 104 -100 318
-338 371 -411 55 -77 154 -224 175 -262 47 -79 62 -112 49 -100 -13 10 -17 3
-28 -46 -21 -94 -86 -277 -120 -339 -18 -32 -40 -71 -48 -88 -27 -51 -213
-227 -312 -296 -267 -184 -462 -267 -713 -305 -379 -56 -754 94 -998 399 -45
56 -123 198 -134 242 -3 16 -15 48 -25 70 -37 81 -41 330 -9 530 28 174 127
413 242 585 154 229 448 467 619 499 52 10 108 4 206 -20z m3329 -771 c-3 -8
-6 -5 -6 6 -1 11 2 17 5 13 3 -3 4 -12 1 -19z m-28 -203 c-7 -184 -30 -309
-90 -490 -74 -223 -148 -343 -282 -460 -37 -33 -74 -65 -80 -71 -14 -12 -133
-92 -233 -157 -115 -74 -317 -158 -449 -186 -52 -11 -192 -27 -305 -35 l-64
-4 64 27 c294 124 656 402 922 708 169 193 245 295 325 436 16 27 46 79 68
115 31 54 125 264 125 281 0 2 1 2 3 0 1 -2 0 -76 -4 -164z"/>
<path d="M7705 9140 c176 -16 332 -65 472 -148 51 -30 103 -65 117 -78 l24
-25 106 17 c58 9 104 20 101 24 -9 15 -219 112 -305 142 -142 49 -258 68 -440
73 -133 3 -148 2 -75 -5z"/>
</g>
</svg>
