<?xml version="1.0" standalone="no"?>
<!DOCTYPE svg PUBLIC "-//W3C//DTD SVG 20010904//EN"
 "http://www.w3.org/TR/2001/REC-SVG-20010904/DTD/svg10.dtd">
<svg version="1.0" xmlns="http://www.w3.org/2000/svg"
 width="1100.000000pt" height="1100.000000pt" viewBox="0 0 1100.000000 1100.000000"
 preserveAspectRatio="xMidYMid meet">
<metadata>
Created by potrace 1.11, written by Peter Selinger 2001-2013
</metadata>
<g transform="translate(0.000000,1100.000000) scale(0.100000,-0.100000)"
fill="#000000" stroke="none">
<path d="M3840 9740 c-110 -12 -211 -30 -231 -41 -10 -5 -30 -9 -46 -9 -16 0
-51 -8 -78 -19 -110 -41 -163 -60 -220 -76 -33 -10 -76 -28 -95 -42 -19 -13
-64 -32 -99 -43 -35 -11 -80 -33 -100 -49 -20 -15 -52 -36 -71 -46 -19 -10
-50 -31 -69 -48 -19 -16 -51 -37 -70 -46 -58 -26 -108 -63 -241 -179 -75 -67
-81 -73 -140 -143 -25 -29 -61 -71 -80 -94 -77 -88 -120 -145 -150 -195 -17
-29 -50 -80 -72 -114 -23 -33 -63 -101 -88 -151 -25 -49 -51 -99 -56 -110 -25
-47 -43 -92 -49 -125 -4 -19 -18 -54 -31 -77 -13 -23 -24 -52 -24 -65 0 -13
-9 -50 -19 -83 -48 -144 -63 -216 -78 -363 -26 -264 -21 -558 11 -668 8 -27
21 -87 29 -134 15 -84 109 -384 129 -407 5 -7 8 -22 6 -35 -2 -17 -23 -32 -88
-64 -47 -23 -96 -53 -109 -68 -14 -14 -29 -26 -36 -26 -6 0 -33 -17 -62 -37
-28 -21 -63 -46 -79 -55 -175 -106 -303 -222 -471 -426 -109 -131 -298 -410
-313 -462 -4 -14 -23 -54 -41 -90 -37 -72 -54 -113 -74 -180 -7 -25 -29 -92
-49 -148 -20 -57 -34 -107 -31 -112 3 -4 -2 -27 -10 -51 -46 -128 -66 -459
-45 -714 14 -170 67 -440 109 -553 17 -46 31 -93 31 -105 0 -12 9 -35 20 -52
11 -16 20 -38 20 -48 0 -11 8 -31 18 -45 10 -15 26 -45 36 -67 9 -22 21 -47
27 -55 5 -8 15 -26 22 -40 6 -14 35 -60 62 -102 28 -42 68 -105 89 -140 48
-77 168 -220 257 -308 84 -82 234 -213 251 -219 18 -6 165 -108 206 -143 18
-15 39 -28 46 -28 18 0 233 -106 264 -130 14 -11 36 -20 51 -20 14 -1 80 -21
146 -46 115 -44 195 -65 315 -83 30 -4 66 -13 80 -18 40 -17 425 -23 605 -10
143 10 347 57 515 117 61 22 121 40 131 40 11 0 49 17 85 39 35 21 94 51 132
67 37 15 121 64 188 109 144 96 158 104 207 127 32 15 37 21 37 51 0 19 -7 54
-15 78 -68 191 -88 513 -45 725 39 192 147 443 261 604 98 139 304 328 449
412 139 81 292 73 505 -24 193 -89 358 -209 596 -436 298 -283 625 -754 730
-1050 l18 -54 -36 -71 c-90 -181 -255 -389 -416 -523 -226 -190 -431 -292
-712 -355 -139 -32 -378 -32 -511 -2 -167 39 -277 87 -422 184 -73 49 -137 89
-142 89 -62 0 141 -225 249 -277 29 -14 67 -38 85 -52 49 -43 93 -71 109 -71
12 0 85 -33 169 -76 14 -8 35 -14 47 -14 11 0 35 -7 53 -15 57 -25 402 -78
466 -71 32 4 84 9 117 11 79 6 239 39 312 65 32 12 83 29 114 39 61 20 110 46
244 131 121 77 128 79 180 41 24 -17 48 -31 53 -31 5 0 25 -12 45 -27 69 -54
268 -161 337 -181 25 -8 68 -22 95 -32 158 -59 482 -76 695 -35 140 26 357 92
388 117 7 6 34 21 60 33 26 12 92 52 147 89 218 146 433 403 533 636 34 80 98
276 111 340 21 109 35 345 23 392 -7 23 -11 54 -10 68 5 80 -68 329 -138 475
-19 39 -34 75 -34 81 0 6 -9 19 -20 29 -11 10 -20 23 -20 29 0 13 -61 100
-110 158 -40 47 -49 102 -26 158 27 68 56 181 66 259 6 41 15 80 21 87 11 13
61 25 189 44 77 12 114 22 257 71 135 47 350 170 432 248 251 239 295 294 395
490 29 58 77 178 106 266 l53 160 1 235 c1 155 -3 257 -12 300 -22 112 -84
302 -122 372 -11 20 -20 43 -20 51 0 8 -14 32 -31 53 -17 22 -35 50 -41 64
-11 28 -52 86 -120 168 -55 66 -59 93 -28 172 37 93 80 264 89 352 4 47 11 89
14 94 19 32 -44 414 -91 554 -58 172 -190 404 -286 505 -26 28 -59 66 -74 85
-15 19 -40 46 -57 60 -16 14 -46 41 -66 60 -85 82 -179 132 -179 96 0 -9 45
-64 101 -124 145 -154 204 -246 263 -411 53 -147 69 -243 69 -416 1 -171 -11
-258 -57 -415 -77 -263 -194 -463 -396 -674 -140 -146 -297 -265 -460 -346
-147 -74 -434 -151 -565 -152 -53 0 -73 6 -153 46 -295 148 -554 380 -751 673
-213 316 -297 710 -221 1038 37 158 135 331 284 497 89 100 103 131 64 142
-47 12 -250 -56 -428 -143 -312 -151 -564 -365 -748 -634 -35 -51 -68 -92 -75
-92 -8 0 -14 32 -18 100 -4 55 -12 167 -18 248 -7 81 -9 174 -6 205 7 54 5 59
-28 102 -19 25 -51 79 -72 120 -94 186 -329 490 -492 635 -37 33 -92 83 -122
111 -31 29 -81 67 -111 85 -30 18 -74 47 -97 64 -68 49 -130 86 -176 103 -23
8 -49 22 -58 29 -8 7 -19 13 -23 13 -5 0 -22 6 -39 14 -79 36 -125 54 -162 65
-36 11 -81 28 -172 67 -17 8 -41 14 -52 14 -12 0 -47 6 -79 14 -174 44 -202
47 -485 51 -155 2 -316 -1 -357 -5z m6235 -3091 c31 -48 87 -214 110 -324 24
-112 25 -350 2 -473 -22 -119 -85 -313 -135 -417 -156 -321 -423 -594 -753
-768 -96 -50 -219 -93 -242 -84 -9 3 -21 34 -31 79 -28 121 -54 197 -119 332
l-62 129 35 28 c19 16 89 72 155 125 202 162 444 415 585 609 24 33 55 74 70
90 43 51 167 265 219 381 27 60 55 138 61 174 7 36 19 79 28 95 14 29 42 65
48 65 2 0 15 -18 29 -41z m-2368 -824 c196 -26 338 -67 488 -143 80 -40 104
-59 220 -176 104 -106 140 -150 180 -221 184 -327 210 -713 75 -1101 -128
-363 -409 -698 -749 -893 -171 -98 -348 -159 -541 -188 -143 -21 -158 -19
-253 28 -334 167 -622 448 -830 809 -31 54 -80 176 -113 280 -55 174 -71 456
-35 620 41 186 145 361 319 542 256 265 598 421 982 448 58 4 114 8 125 8 11
1 71 -5 132 -13z m1247 -2323 c92 -279 88 -553 -14 -865 -91 -280 -249 -514
-489 -724 -173 -152 -333 -243 -547 -313 -298 -97 -589 -95 -864 7 -152 56
-182 93 -77 93 118 1 277 51 464 147 396 202 804 576 1068 978 159 243 294
531 295 630 0 19 57 120 89 159 22 26 37 5 75 -112z"/>
<path d="M7954 9145 c-25 -18 -17 -25 86 -69 115 -50 151 -70 245 -133 75 -52
82 -54 125 -48 49 7 101 33 108 53 2 6 -8 16 -23 22 -15 6 -53 26 -85 44 -32
19 -85 41 -117 49 -32 9 -84 29 -115 46 -32 16 -79 32 -105 36 -27 3 -60 8
-74 10 -15 2 -35 -2 -45 -10z"/>
</g>
</svg>
